<svg version="1" xmlns="http://www.w3.org/2000/svg" width="1333.333" height="1333.333" viewBox="0 0 1000.000000 1000.000000"><path d="M567.5 247.5C554.4 261 543.4 272 543.1 272c-.4 0-7.1-9.4-14.9-21L514 230.1l-15.3 9.6c-8.3 5.3-22.4 14.2-31.2 19.8l-16 10.2-9 16c-4.9 8.8-9.7 17-10.5 18.2l-1.5 2.2-3.5-2.4c-1.9-1.3-7.2-4.7-11.7-7.6L407 291l-6.1 12.2c-3.4 6.8-6.3 12.5-6.5 12.8-.3.2-6.8-5.9-14.5-13.5-13.5-13.5-14.1-13.9-15.5-12-.9 1.1-10.6 14.7-21.6 30.2-11.1 15.6-20.4 28.3-20.8 28.3-.4 0-7.4-9.7-15.6-21.5s-15.1-21.4-15.4-21.4c-.3 0-40 68.5-88.3 152.2L115 610.5l183 .3 183 .2v89.2l-68.7-.6c-126.7-1.2-216.9-3-283.1-5.7-15.1-.6-27.5-.9-27.7-.7-.7.6 12.1 22.5 21.2 36.2 10.8 16.5 20.9 29.8 34.4 45.8l10.8 12.6-7.1.7c-7.9.8-27.8 0-53.3-2-9.3-.8-17.1-1.2-17.3-1-1.1 1 19.5 27.7 34.2 44.5 28.8 33 65.8 64.9 103.1 89.2 66.5 43.4 140.9 69.6 222.5 78.5 23.3 2.5 76.7 2.5 100 0 38.2-4.2 73.6-11.9 109-23.7 95.3-31.7 180.1-92.9 240.5-173.5 11.6-15.5 27-38.3 26.3-39-1.2-1.3-29.9-2.7-47.7-2.3-14 .2-20.7 0-20.3-.7.3-.5 3.1-4.4 6.2-8.5 11.6-15.3 36.8-55.6 35.5-56.8-.2-.2-12.9.1-28.2.7-67.3 2.7-156.4 4.5-283 5.7l-68.3.6V611l183.5-.2 183.6-.3-105.3-182.6-105.3-182.6-.8 6.6c-.4 3.6-1.1 8.7-1.5 11.2l-.7 4.7-33-17.9c-18.1-9.9-36.7-20-41.2-22.4l-8.1-4.4-23.7 24.4zm-274.1 463c9.2 4.4 8.7 19.1-.8 23-2.9 1.2-3.3 2-4.9 9.6-.9 4.5-1.6 8.4-1.4 8.5.1.2 4.5 1.2 9.6 2.3 5.2 1.2 9.6 2.3 9.9 2.5.2.3.1 2.1-.2 4.1-.8 4.2-1.1 4.2-12.8 1.6l-8.7-1.9-1.5 7.2c-.9 3.9-1.9 8.9-2.4 11.1-.8 3.9-.9 4-5.6 4.3-4.2.3-4.7.1-4.2-1.5.7-2.7 4.6-21.1 4.6-22.2 0-.4-3.9-1.6-8.7-2.6-4.9-1-9.3-2.3-10-2.9-1.4-1.3-.6-6.6 1.2-7.2.6-.3 5.2.4 10.1 1.5 4.9 1 9.1 1.8 9.2 1.6.2-.2 1.2-4 2.2-8.5 1.8-8 1.8-8.2-.1-10.1-6-6-4.1-17.1 3.4-20.4 4.2-1.9 7.2-1.8 11.1 0zm-67.4 68c10.7 5.4 10.4 7.5-1.1 7.5h-6.7l-.4-4.8c-.4-4.5-.2-6.2.8-6.2.2 0 3.6 1.6 7.4 3.5z"/><path d="M285.7 717.1c-3.1 1.8-4 4.8-2.2 7.5 2.8 4.3 9.5 2.2 9.5-3 0-3.6-4.2-6.2-7.3-4.5z"/></svg>